<?xml version="1.0" encoding="UTF-8" standalone="no"?>
<!DOCTYPE svg PUBLIC "-//W3C//DTD SVG 1.1//EN" "http://www.w3.org/Graphics/SVG/1.1/DTD/svg11.dtd">
<svg width="100%" height="100%" viewBox="0 0 403 297" version="1.1" xmlns="http://www.w3.org/2000/svg" xmlns:xlink="http://www.w3.org/1999/xlink" xml:space="preserve" xmlns:serif="http://www.serif.com/" style="fill-rule:evenodd;clip-rule:evenodd;stroke-linejoin:round;stroke-miterlimit:2;">
    <g transform="matrix(1,0,0,1,234.063,230.783)">
        <path d="M0,5.23C-2.895,-1.239 -5.629,-7.348 -8.742,-13.207C-14.371,-23.798 -23.627,-40.364 -33.999,-55.532C-34.242,-55.887 -34.8,-55.711 -34.8,-55.282L-34.8,60.678C-34.8,60.92 -34.604,61.117 -34.363,61.117L6.568,61.117C6.811,61.117 7.006,60.92 7.006,60.678L7.006,20.438C7.006,20.372 6.99,20.306 6.961,20.247C4.488,15.251 2.228,10.205 0,5.23" style="fill:rgb(74,79,85);fill-rule:nonzero;"/>
    </g>
    <g transform="matrix(1,0,0,1,162.833,287.347)">
        <path d="M0,-204.507C0.008,-204.508 0.016,-204.512 0.022,-204.512C0.024,-204.512 0.026,-204.511 0.028,-204.51C0.192,-204.437 0.334,-204.374 0.496,-204.3C0.496,-204.301 0.496,-204.301 0.495,-204.301C0.496,-204.301 0.496,-204.301 0.496,-204.3C0.328,-204.366 0.168,-204.442 0,-204.507M187.163,-120.867L174.04,-125.14C152.069,-132.158 145.661,-141.312 145.661,-152.909C145.661,-165.726 155.122,-175.794 171.905,-175.794C187.195,-175.794 204.549,-169.609 223.963,-158.106C224.46,-157.812 225.099,-158.105 225.19,-158.674L231.316,-197.178C231.372,-197.529 231.193,-197.88 230.876,-198.041C210.915,-208.233 190.965,-213.331 172.515,-213.331C131.623,-213.331 103.854,-186.477 103.854,-151.077C103.854,-123.308 117.891,-99.2 156.341,-86.689L169.462,-82.416C190.212,-75.703 196.622,-65.633 196.622,-54.345C196.623,-37.407 182.581,-30.263 167.715,-30.263C166.921,-30.263 166.127,-30.283 165.331,-30.323C148.728,-31.164 137.758,-40.078 128.578,-53.519C117.5,-69.736 109.62,-88.478 100.136,-105.687C90.487,-123.199 80.084,-140.334 67.718,-156.081C47.87,-181.358 17.757,-200.569 -13.214,-208.795C-24.384,-211.762 -35.922,-213.331 -47.483,-213.331C-112.178,-213.331 -162.833,-164.506 -162.833,-102.252C-162.833,-40.001 -113.092,8.824 -50.229,8.824C-23.856,8.824 2.821,1.297 23.216,-10.773C23.467,-10.92 23.619,-11.191 23.619,-11.482L23.619,-110.332C23.619,-110.784 23.252,-111.15 22.801,-111.15L-57.465,-111.15C-57.867,-111.15 -58.21,-110.857 -58.272,-110.459L-63.814,-75.169C-63.892,-74.673 -63.509,-74.225 -63.006,-74.225L-16.871,-74.225C-16.419,-74.225 -16.053,-73.859 -16.053,-73.406L-16.053,-38.712C-16.053,-38.383 -16.25,-38.082 -16.553,-37.953C-26.172,-33.835 -36.401,-32.068 -48.399,-32.068C-88.375,-32.068 -118.891,-62.583 -118.891,-102.252C-118.891,-142.23 -87.459,-172.745 -46.569,-172.745C-16.75,-172.745 11.276,-162.13 31.679,-139.715C34.266,-136.873 36.847,-133.772 39.393,-130.512C54.223,-111.523 67.856,-86.974 74.456,-74.556C76.864,-70.025 79.058,-65.342 81.2,-60.616C87.129,-47.531 92.646,-34.107 101.11,-22.575C116.549,-1.539 141.634,8.824 167.327,8.824C214.626,8.824 239.344,-22.303 239.344,-56.784C239.344,-83.943 224.697,-108.662 187.163,-120.867" style="fill:rgb(74,79,85);fill-rule:nonzero;"/>
    </g>
    <g transform="matrix(1,0,0,1,162.855,82.838)">
        <path d="M0,-0.003C-0.007,-0.003 -0.015,0.001 -0.022,0.002C-0.013,0.001 -0.003,-0.005 0.006,-0.002C0.004,-0.003 0.002,-0.003 0,-0.003" style="fill:rgb(74,79,85);fill-rule:nonzero;"/>
    </g>
    <g transform="matrix(1,0,0,1,163.328,82.8399)">
        <path d="M0,0.206C-0.167,0.141 -0.327,0.065 -0.495,0C-0.327,0.065 -0.167,0.141 0.001,0.206L0,0.206" style="fill:rgb(74,79,85);fill-rule:nonzero;"/>
    </g>
    <g transform="matrix(1,0,0,1,163.329,82.8364)">
        <path d="M0,0.21C-0.162,0.137 -0.304,0.074 -0.468,0C-0.304,0.074 -0.163,0.137 -0.001,0.21L0,0.21" style="fill:rgb(74,79,85);fill-rule:nonzero;"/>
    </g>
    <g transform="matrix(1,0,0,1,162.833,82.8389)">
        <rect x="0" y="0" width="0.001" height="0.001" style="fill:rgb(74,79,85);"/>
    </g>
    <g transform="matrix(1,0,0,1,162.861,83.0415)">
        <path d="M0,-0.205C-0.009,-0.209 -0.019,-0.203 -0.028,-0.202C0.14,-0.137 0.299,-0.061 0.467,0.004C0.305,-0.068 0.164,-0.131 0,-0.205" style="fill:rgb(74,79,85);fill-rule:nonzero;"/>
    </g>
    <g transform="matrix(1,0,0,1,269.551,69.3743)">
        <path d="M0,-25.051C-1.386,-26.404 -2.813,-27.724 -4.284,-29.009C-5.502,-30.072 -6.807,-31.152 -8.196,-32.236C-13.955,-36.729 -20.169,-40.483 -26.697,-43.477C-23.81,-49.003 -21.356,-54.546 -19.363,-60.07C-17.648,-59.444 -15.952,-58.768 -14.284,-58.031C-9.162,-55.767 -4.259,-53.033 0.323,-49.846C2.138,-48.585 3.898,-47.249 5.606,-45.852C4.317,-38.722 2.467,-31.811 0,-25.051M-18.297,8.622C-20.244,6.482 -22.242,4.373 -24.303,2.303C-29.451,-2.866 -36.87,-9.558 -45.063,-15.646C-39.549,-22.524 -34.685,-29.535 -30.519,-36.601C-23.662,-33.132 -16.502,-28.611 -9.766,-22.73C-7.543,-20.79 -5.426,-18.76 -3.416,-16.652C-7.273,-8.077 -12.193,0.298 -18.297,8.622M-50.851,-19.744C-56.396,-23.473 -62.123,-26.734 -67.615,-28.929C-69.609,-29.726 -71.57,-30.616 -73.561,-31.397C-74.557,-31.788 -75.554,-32.169 -76.554,-32.536L-78.082,-33.094L-78.875,-33.377L-79.664,-33.618C-79.808,-33.661 -79.952,-33.701 -80.097,-33.743C-80.017,-33.817 -79.936,-33.889 -79.857,-33.963C-75.216,-38.284 -70.887,-42.968 -66.882,-47.922C-66.271,-47.83 -65.66,-47.733 -65.051,-47.63L-65.029,-47.622C-65.029,-47.622 -52.487,-46.276 -36.958,-39.609C-40.941,-32.92 -45.59,-26.274 -50.851,-19.744M-65.984,-2.973C-71.144,2.163 -76.679,7.008 -81.972,11.265C-89.45,0.764 -95.12,-8.56 -97.146,-12.239L-97.212,-12.359C-98.294,-14.328 -99.333,-16.322 -100.33,-18.338C-98.739,-19.313 -97.163,-20.317 -95.609,-21.359C-91.388,-24.258 -87.312,-27.393 -83.421,-30.763C-82.572,-30.35 -81.719,-29.944 -80.873,-29.526L-80.521,-29.352C-80.409,-29.296 -80.271,-29.229 -80.204,-29.191L-79.562,-28.828L-78.229,-28.069C-77.324,-27.551 -76.425,-27.022 -75.532,-26.485C-74.498,-25.864 -66.666,-21.28 -56.09,-13.515C-59.209,-9.955 -62.508,-6.436 -65.984,-2.973M-63,-52.923C-61.965,-54.272 -61.02,-55.674 -60.026,-57.052C-58.179,-59.73 -56.386,-62.449 -54.648,-65.153C-52.107,-65.308 -49.562,-65.357 -47.021,-65.289C-39.942,-65.12 -32.902,-64.088 -26.109,-62.227C-28.047,-56.895 -30.438,-51.538 -33.262,-46.193C-42.955,-49.783 -53.209,-51.778 -63.605,-52.114L-63,-52.923ZM37.832,-14.048C35.504,-19.599 32.608,-24.908 29.222,-29.87C25.83,-34.83 21.951,-39.445 17.674,-43.636C9.106,-52.006 -1.101,-58.688 -12.194,-63.051C-23.28,-67.426 -35.188,-69.579 -47.013,-69.359C-58.833,-69.086 -70.561,-66.528 -81.26,-61.746C-86.608,-59.358 -91.706,-56.451 -96.449,-53.073C-101.175,-49.673 -105.571,-45.84 -109.503,-41.595C-105.233,-45.497 -100.647,-49.024 -95.754,-52.031C-90.88,-55.063 -85.727,-57.613 -80.386,-59.621C-75.042,-61.619 -69.536,-63.139 -63.938,-64.088C-63.549,-64.155 -63.158,-64.212 -62.769,-64.273C-63.573,-63.069 -64.385,-61.911 -65.261,-60.363C-66.096,-58.959 -66.889,-57.521 -67.765,-56.143L-69.056,-54.057C-69.471,-53.395 -69.91,-52.75 -70.337,-52.096C-73.737,-51.972 -77.141,-51.676 -80.538,-51.196C-86.221,-50.391 -92.189,-49.322 -96.244,-47.996C-88.417,-49.121 -80.498,-49.324 -72.707,-48.621C-75.685,-44.384 -78.905,-40.309 -82.382,-36.442C-82.868,-35.902 -83.36,-35.367 -83.854,-34.835C-86.474,-35.588 -89.094,-36.325 -91.722,-37.022C-95.749,-38.076 -99.794,-39.106 -103.852,-39.802C-99.912,-38.396 -96.08,-36.685 -92.255,-34.949C-90.291,-34.05 -88.332,-33.132 -86.38,-32.199C-89.634,-28.893 -93.069,-25.749 -96.666,-22.778C-98.052,-21.659 -99.463,-20.571 -100.894,-19.507C-103.553,-24.997 -105.896,-30.648 -107.855,-36.433C-106.889,-30.136 -105.453,-23.821 -103.594,-17.55C-106.645,-15.388 -109.78,-13.334 -112.988,-11.38C-109.708,-12.999 -106.474,-14.726 -103.298,-16.57C-102.707,-14.624 -102.08,-12.682 -101.407,-10.747L-101.359,-10.611L-101.354,-10.602C-100.321,-7.644 -98.607,-3.568 -96.916,0.268C-95.519,3.438 -93.968,6.549 -92.301,9.603C-87.327,11.87 -82.435,14.391 -77.676,17.142C-77.799,16.978 -77.926,16.814 -78.048,16.65C-73.047,13.106 -67.408,8.434 -60.99,2.042C-57.273,-1.659 -53.751,-5.426 -50.425,-9.241C-44.087,-4.329 -37.116,1.523 -30.208,8.185C-27.843,10.467 -25.573,12.816 -23.388,15.22C-27.968,20.868 -33.107,26.513 -38.847,32.199C-41.503,34.831 -44.229,37.4 -47.01,39.901C-45.397,41.417 -43.826,42.961 -42.295,44.528C-39.955,42.638 -37.477,40.508 -34.673,37.983C-29.472,33.3 -23.937,27.551 -18.52,20.837C-13.922,26.416 -9.773,32.265 -6.021,38.299C-4.738,35.37 -3.258,32.558 -1.589,29.872C-5.222,24.477 -9.172,19.241 -13.429,14.182C-8.021,6.713 -2.888,-1.74 1.501,-11.073C7.141,-4.152 11.716,3.473 15.196,11.542C17.45,9.837 19.817,8.249 22.301,6.795C18,-2.718 12.269,-11.633 5.194,-19.604C7.796,-26.17 9.997,-33.115 11.665,-40.413C12.13,-39.956 12.591,-39.495 13.046,-39.028C19.377,-32.501 24.644,-24.984 28.592,-16.845C27.341,-8.583 25.283,-0.762 22.61,6.622C25.596,4.892 28.745,3.356 32.032,2.012C32.592,0.007 33.107,-2.011 33.568,-4.045C34.058,-2.406 34.482,-0.75 34.871,0.914C37.225,0.055 39.641,-0.714 42.125,-1.37C41.015,-5.697 39.588,-9.941 37.832,-14.048" style="fill:rgb(177,31,41);fill-rule:nonzero;"/>
    </g>
    <g transform="matrix(1,0,0,1,148.513,53.9948)">
        <path d="M0,-13.213C-3.397,-8.484 -6.328,-3.399 -8.739,1.939C-10.293,5.378 -11.592,8.933 -12.685,12.556C-11.717,12.699 -10.75,12.84 -9.784,13.003C-8.918,9.56 -7.867,6.159 -6.606,2.827C-4.577,-2.505 -2.006,-7.648 1.046,-12.509C4.072,-17.39 7.617,-21.962 11.535,-26.216C7.273,-22.304 3.421,-17.924 0,-13.213" style="fill:rgb(177,31,41);fill-rule:nonzero;"/>
    </g>
    <g transform="matrix(1,0,0,1,150.327,54.6112)">
        <path d="M0,2.092C-0.607,6.254 -0.934,10.43 -1.005,14.593C-0.136,14.808 0.735,15.011 1.603,15.242C2.143,15.385 2.684,15.541 3.225,15.692C1.829,6.062 1.821,-3.842 3.265,-13.6C1.922,-9.551 0.828,-3.588 0,2.092" style="fill:rgb(177,31,41);fill-rule:nonzero;"/>
    </g>
</svg>
